<svg width="540" height="340" viewBox="0 0 540 340" fill="none" xmlns="http://www.w3.org/2000/svg">
<path d="M15 155C15 146.163 22.1634 139 31 139H112V193H31C22.1634 193 15 185.837 15 177V155Z" fill="#B0BEC5"/>
<path d="M54 224C54 215.163 61.1634 208 70 208H151V262H70C61.1634 262 54 254.837 54 246V224Z" fill="#B0BEC5"/>
<path d="M31 137H111V189H31C22.7157 189 16 182.284 16 174V152C16 143.716 22.7157 137 31 137Z" fill="white" stroke="#B0BEC5" stroke-width="2"/>
<path d="M70 206H150V258H70C61.7157 258 55 251.284 55 243V221C55 212.716 61.7157 206 70 206Z" fill="white" stroke="#B0BEC5" stroke-width="2"/>
<path fill-rule="evenodd" clip-rule="evenodd" d="M30 148.5C28.62 148.5 27.5 149.62 27.5 151C27.5 152.38 28.62 153.5 30 153.5C31.38 153.5 32.5 152.38 32.5 151C32.5 149.62 31.38 148.5 30 148.5V148.5ZM29.5 152.25L28.25 151L28.6025 150.648L29.5 151.543L31.3975 149.645L31.75 150L29.5 152.25V152.25Z" fill="#B0BEC5"/>
<path fill-rule="evenodd" clip-rule="evenodd" d="M69 217.5C67.62 217.5 66.5 218.62 66.5 220C66.5 221.38 67.62 222.5 69 222.5C70.38 222.5 71.5 221.38 71.5 220C71.5 218.62 70.38 217.5 69 217.5V217.5ZM68.5 221.25L67.25 220L67.6025 219.648L68.5 220.543L70.3975 218.645L70.75 219L68.5 221.25V221.25Z" fill="#B0BEC5"/>
<path fill-rule="evenodd" clip-rule="evenodd" d="M30 160.5C28.62 160.5 27.5 161.62 27.5 163C27.5 164.38 28.62 165.5 30 165.5C31.38 165.5 32.5 164.38 32.5 163C32.5 161.62 31.38 160.5 30 160.5V160.5ZM29.5 164.25L28.25 163L28.6025 162.648L29.5 163.543L31.3975 161.645L31.75 162L29.5 164.25V164.25Z" fill="#B0BEC5"/>
<path fill-rule="evenodd" clip-rule="evenodd" d="M69 229.5C67.62 229.5 66.5 230.62 66.5 232C66.5 233.38 67.62 234.5 69 234.5C70.38 234.5 71.5 233.38 71.5 232C71.5 230.62 70.38 229.5 69 229.5V229.5ZM68.5 233.25L67.25 232L67.6025 231.648L68.5 232.543L70.3975 230.645L70.75 231L68.5 233.25V233.25Z" fill="#B0BEC5"/>
<path fill-rule="evenodd" clip-rule="evenodd" d="M30 172.5C28.62 172.5 27.5 173.62 27.5 175C27.5 176.38 28.62 177.5 30 177.5C31.38 177.5 32.5 176.38 32.5 175C32.5 173.62 31.38 172.5 30 172.5V172.5ZM29.5 176.25L28.25 175L28.6025 174.648L29.5 175.543L31.3975 173.645L31.75 174L29.5 176.25V176.25Z" fill="#B0BEC5"/>
<path fill-rule="evenodd" clip-rule="evenodd" d="M69 241.5C67.62 241.5 66.5 242.62 66.5 244C66.5 245.38 67.62 246.5 69 246.5C70.38 246.5 71.5 245.38 71.5 244C71.5 242.62 70.38 241.5 69 241.5V241.5ZM68.5 245.25L67.25 244L67.6025 243.648L68.5 244.543L70.3975 242.645L70.75 243L68.5 245.25V245.25Z" fill="#B0BEC5"/>
<rect opacity="0.32" x="36" y="148" width="95" height="6" rx="3" fill="#B0BEC5"/>
<rect opacity="0.32" x="75" y="217" width="95" height="6" rx="3" fill="#B0BEC5"/>
<rect opacity="0.32" x="36" y="160" width="95" height="6" rx="3" fill="#B0BEC5"/>
<rect opacity="0.32" x="75" y="229" width="95" height="6" rx="3" fill="#B0BEC5"/>
<rect opacity="0.32" x="36" y="172" width="68" height="6" rx="3" fill="#B0BEC5"/>
<rect opacity="0.32" x="75" y="241" width="68" height="6" rx="3" fill="#B0BEC5"/>
<path d="M470.94 193.682C470.94 193.682 440.013 218.422 453.744 274.624" stroke="#8D9DB5" stroke-width="2" stroke-linecap="round" stroke-linejoin="round"/>
<path d="M459.529 260.606C459.138 260.267 458.834 259.838 458.645 259.356C458.456 258.873 458.387 258.352 458.444 257.837C460.661 237.587 469.791 216.736 484.029 209.09C498.665 201.227 508.651 223.056 488.362 243.306C473.094 258.564 464.941 261.049 461.827 261.343C461.411 261.38 460.992 261.333 460.594 261.204C460.197 261.075 459.83 260.867 459.515 260.592L459.529 260.606Z" fill="#D5DDE8"/>
<path d="M445.124 273.995C445.124 273.995 440.728 258.095 427.366 256.943" stroke="#8D9DB5" stroke-width="2" stroke-linecap="round" stroke-linejoin="round"/>
<path d="M495.903 210.891C495.903 210.891 470.29 236.55 460.042 259.859" stroke="#8D9DB5" stroke-width="2" stroke-linecap="round" stroke-linejoin="round"/>
<path d="M491.361 238.728C491.361 238.728 480.834 238.379 469.49 243.323" stroke="#8D9DB5" stroke-width="2" stroke-linecap="round" stroke-linejoin="round"/>
<path d="M479.085 213.426C479.085 213.426 466.264 236.403 467.214 246.277" stroke="#8D9DB5" stroke-width="2" stroke-linecap="round" stroke-linejoin="round"/>
<path d="M478.516 251.276C478.516 251.276 468.911 250.927 462.658 254.806" stroke="#8D9DB5" stroke-width="2" stroke-linecap="round" stroke-linejoin="round"/>
<path d="M441.44 242.08C440.344 242.838 439.097 242.971 438.109 242.429C419.008 231.92 402.895 212.305 402.636 191.126C402.371 169.361 429.377 164.794 439.122 198.518C446.454 223.897 444.708 235.307 443.392 239.399C443.05 240.482 442.365 241.424 441.44 242.084V242.08Z" fill="#D5DDE8"/>
<path d="M440.211 242.712C440.211 242.712 432.432 189.67 410.069 177.583" stroke="#8D9DB5" stroke-width="2" stroke-linecap="round" stroke-linejoin="round"/>
<path d="M403.747 194.394C408.635 196.597 426.092 204.75 432.726 212.054" stroke="#8D9DB5" stroke-width="2" stroke-linecap="round" stroke-linejoin="round"/>
<path d="M438.012 198.263C438.71 205.738 439.409 218.757 436.308 222.839" stroke="#8D9DB5" stroke-width="2" stroke-linecap="round" stroke-linejoin="round"/>
<path d="M437.345 230.946C437.345 230.946 420.135 225.045 412.398 218.785" stroke="#8D9DB5" stroke-width="2" stroke-linecap="round" stroke-linejoin="round"/>
<path d="M429.53 251.542C429.929 248.605 429.476 246.119 428.519 245.989C427.561 245.859 426.462 248.135 426.064 251.071C425.665 254.008 426.118 256.494 427.075 256.624C428.032 256.754 429.132 254.479 429.53 251.542Z" fill="#D5DDE8"/>
<path d="M427.045 256.603C427.613 255.915 426.381 253.961 424.295 252.239C422.208 250.518 420.055 249.68 419.487 250.369C418.919 251.058 420.15 253.012 422.237 254.733C424.324 256.455 426.476 257.292 427.045 256.603Z" fill="#D5DDE8"/>
<path d="M432.592 255.57C435.194 254.206 436.938 252.401 436.486 251.539C436.034 250.676 433.557 251.083 430.955 252.447C428.352 253.811 426.608 255.616 427.06 256.479C427.512 257.341 429.989 256.935 432.592 255.57Z" fill="#D5DDE8"/>
<path d="M423.542 260.342C425.909 259.044 427.479 257.355 427.048 256.571C426.618 255.786 424.351 256.203 421.984 257.501C419.617 258.799 418.047 260.487 418.477 261.272C418.907 262.056 421.175 261.64 423.542 260.342Z" fill="#D5DDE8"/>
<path d="M431.137 265.582C431.946 265.213 431.687 262.908 430.559 260.435C429.43 257.961 427.86 256.255 427.051 256.624C426.243 256.993 426.502 259.297 427.63 261.771C428.758 264.244 430.329 265.951 431.137 265.582Z" fill="#D5DDE8"/>
<path d="M475.069 190.953C477.021 187.546 477.258 184.014 475.6 183.065C473.942 182.115 471.016 184.107 469.065 187.514C467.113 190.92 466.876 194.452 468.534 195.402C470.192 196.351 473.118 194.359 475.069 190.953Z" fill="#D5DDE8"/>
<path d="M475.186 198.731C479.076 198.652 482.198 197.025 482.159 195.098C482.12 193.17 478.935 191.671 475.044 191.749C471.154 191.828 468.032 193.455 468.071 195.383C468.11 197.311 471.295 198.81 475.186 198.731Z" fill="#D5DDE8"/>
<path d="M468.047 195.483C469.418 194.464 468.836 191.359 466.747 188.549C464.658 185.738 461.854 184.286 460.482 185.305C459.111 186.324 459.693 189.429 461.782 192.239C463.87 195.05 466.675 196.502 468.047 195.483Z" fill="#D5DDE8"/>
<path d="M470.602 201.049C472.031 197.844 471.928 194.682 470.371 193.988C468.815 193.294 466.394 195.329 464.964 198.534C463.534 201.739 463.637 204.9 465.194 205.594C466.751 206.289 469.172 204.254 470.602 201.049Z" fill="#D5DDE8"/>
<path d="M465.657 198.172C468.776 197.836 471.169 196.311 471.003 194.766C470.836 193.22 468.173 192.24 465.054 192.576C461.934 192.912 459.541 194.437 459.707 195.983C459.874 197.528 462.537 198.508 465.657 198.172Z" fill="#D5DDE8"/>
<path d="M482.384 277.48L469.466 336H428.424L415.506 277.48C414.766 274.135 416.853 270.846 419.72 270.846H478.167C481.037 270.853 483.11 274.135 482.384 277.48Z" fill="#D5DDE8"/>
<path d="M312 164C316.489 152.199 325.149 125.078 323.873 111L312 124.926V164Z" fill="#639EC5"/>
<path d="M135.444 52C121.392 52 110 64.536 110 80V304C110 319.464 121.392 332 135.444 332H339C324.947 332 313.556 319.464 313.556 304V80C313.556 64.536 302.164 52 288.111 52H135.444Z" fill="#ECEFF1"/>
<path d="M413.355 123.557C410.294 118.649 411.777 110.773 413.214 105.102C413.3 104.759 413.204 104.396 412.951 104.15C407.993 99.3362 395.232 89.4834 380.478 85.5407C365.987 81.6681 351.495 85.9626 345.264 88.9323C344.792 89.1574 344.532 89.7324 344.54 90.2555C344.595 94.3288 342.572 109.399 342.543 109.615C342.542 109.623 342.543 109.614 342.542 109.621C342.506 109.844 340.792 120.297 333.844 124.685C333.216 125.082 333.113 126 333.752 126.379C335.806 127.597 337.859 127.895 339.913 127.968C340.736 127.997 341.094 128.836 340.407 129.29C337.738 131.058 332.779 132.873 329.809 133.805C329.043 134.045 328.814 135.051 329.422 135.574C352.149 155.07 380.19 159.741 415.795 141.69C416.564 141.3 416.508 140.179 415.722 139.825C413.318 138.746 411.689 137.54 410.181 135.253C409.682 134.497 410.459 133.602 411.327 133.86C415.979 135.242 419.093 135.042 422.668 133.5C423.608 133.095 423.34 131.26 422.395 130.865C419.317 129.575 415.506 127.006 413.355 123.557Z" fill="#003566"/>
<path d="M353.689 298.132C366.364 299.4 400.133 313.921 409.005 235.96C416.946 166.183 376.658 138.549 312.678 144.878L312 285.836C321.083 290.273 343.549 297.118 353.689 298.132Z" fill="#485AFF"/>
<path d="M328 226.992C342.674 218.28 371.3 240.459 382 249" stroke="#003566" stroke-width="2" stroke-linecap="round" stroke-linejoin="round"/>
<path d="M378 209C377.473 217.027 370.757 233.819 369 238" stroke="#003566" stroke-width="2" stroke-linecap="round" stroke-linejoin="round"/>
<path d="M344.816 148.918L351.304 140.33C356.205 133.844 365.191 132.064 372.195 136.192L380.056 140.826L368.942 163.699C365.314 171.164 356.089 173.947 348.939 169.732C341.622 165.419 339.696 155.694 344.816 148.918Z" fill="white" stroke="#003566" stroke-width="2"/>
<ellipse cx="411.501" cy="118.568" rx="8.47589" ry="11.0208" transform="rotate(26.2784 411.501 118.568)" fill="white" stroke="#003566" stroke-width="2" stroke-linecap="round"/>
<ellipse cx="347.527" cy="109.348" rx="8.47589" ry="11.0208" transform="rotate(-7.14375 347.527 109.348)" fill="white" stroke="#003566" stroke-width="2" stroke-linecap="round"/>
<path d="M125.333 240C125.333 230.8 132.8 223.333 142 223.333C151.2 223.333 158.667 230.8 158.667 240C158.667 249.2 151.2 256.667 142 256.667C132.8 256.667 125.333 249.2 125.333 240Z" fill="#00B6A4"/>
<path fill-rule="evenodd" clip-rule="evenodd" d="M151.574 232.796C152.499 233.721 152.499 235.221 151.574 236.147L140.516 247.204C139.591 248.129 138.091 248.129 137.165 247.204L132.426 242.465C131.501 241.54 131.501 240.04 132.426 239.114C133.352 238.189 134.852 238.189 135.777 239.114L138.841 242.178L148.223 232.796C149.148 231.87 150.648 231.87 151.574 232.796Z" fill="#EFF1F3"/>
<path d="M125.333 286C125.333 276.8 132.8 269.333 142 269.333C151.2 269.333 158.667 276.8 158.667 286C158.667 295.2 151.2 302.667 142 302.667C132.8 302.667 125.333 295.2 125.333 286Z" fill="#00B6A4"/>
<path fill-rule="evenodd" clip-rule="evenodd" d="M151.574 278.796C152.499 279.721 152.499 281.221 151.574 282.147L140.516 293.204C139.591 294.129 138.091 294.129 137.165 293.204L132.426 288.465C131.501 287.54 131.501 286.04 132.426 285.114C133.352 284.189 134.852 284.189 135.777 285.114L138.841 288.178L148.223 278.796C149.148 277.87 150.648 277.87 151.574 278.796Z" fill="#EFF1F3"/>
<path d="M433.986 96.8823C420.373 79.722 376.658 77.4503 355 89.8162L410.418 109.837C428.891 111.015 440.993 105.715 433.986 96.8823Z" fill="#FFC300"/>
<rect y="332" width="540" height="8" rx="4" fill="#ECEFF1"/>
<rect opacity="0.32" x="134" y="84" width="155" height="16" rx="8" fill="#B0BEC5"/>
<rect opacity="0.32" x="134" y="116" width="112" height="16" rx="8" fill="#B0BEC5"/>
<rect opacity="0.32" x="134" y="148" width="79" height="16" rx="8" fill="#B0BEC5"/>
<rect opacity="0.32" x="134" y="180" width="50" height="16" rx="8" fill="#B0BEC5"/>
<path d="M299.969 245.585C301.316 246.153 307.903 248.214 314.115 248.569C318.805 248.569 322.713 250.245 325 251C333.826 253.914 338.664 250.913 339.711 247.858C340.759 244.802 338.842 234.605 335.773 232.971C332.705 231.337 324.444 226.186 322.348 224.694C320.252 223.202 315.537 219.862 314.639 220.004C313.741 220.147 313.666 225.476 313.292 226.186C312.992 226.755 311.969 226.707 311.495 226.612C304.66 224.623 290.658 220.658 289.341 220.715C287.695 220.786 289.042 222.989 290.015 223.912C290.793 224.651 295.878 226.778 298.323 227.749C295.379 227.631 289.176 227.465 287.919 227.749C286.347 228.105 287.096 229.242 287.919 230.379C288.578 231.288 293.033 232.7 295.179 233.292C294.805 233.695 293.802 234.642 292.784 235.21C291.511 235.921 293.158 237.768 294.73 238.834C295.987 239.687 297.948 240.468 298.772 240.753C298.547 241.061 297.963 241.818 297.424 242.387C296.751 243.097 298.622 245.016 299.969 245.585Z" fill="white"/>
<rect opacity="0.32" x="174" y="232" width="115" height="16" rx="8" fill="#B0BEC5"/>
<rect opacity="0.32" x="174" y="278" width="115" height="16" rx="8" fill="#B0BEC5"/>
<path d="M410.254 111.966C402.651 139.776 378.805 154.111 364.023 150.578C349.241 147.045 339.809 125.623 344.887 98.6472C349.966 71.6716 366.23 56.4356 385.832 60.1257C405.433 63.8158 415.332 84.9906 410.254 111.966Z" fill="white" stroke="#003566" stroke-width="2" stroke-linecap="round"/>
<path d="M367.458 126.097L362.255 123.277C362.129 123.209 362.02 123.114 361.935 122.998C361.851 122.882 361.794 122.748 361.769 122.608C361.743 122.467 361.75 122.322 361.788 122.184C361.826 122.046 361.895 121.918 361.989 121.81L373.005 109.263" stroke="#003566" stroke-width="2" stroke-linecap="round" stroke-linejoin="round"/>
<path d="M390.422 108.167C390.422 108.167 387.744 101.65 382.106 103.281" stroke="#003566" stroke-width="2" stroke-linecap="round" stroke-linejoin="round"/>
<path d="M369.519 96.4241C369.519 96.4241 364.571 91.2491 359.904 94.6856" stroke="#003566" stroke-width="2" stroke-linecap="round" stroke-linejoin="round"/>
<path d="M385.159 110.939C384.653 109.051 383.217 107.795 381.952 108.134C380.687 108.473 380.071 110.279 380.577 112.167C381.083 114.056 382.519 115.312 383.784 114.973C385.05 114.633 385.665 112.828 385.159 110.939Z" fill="#003566"/>
<path d="M364.065 104.724C364.065 102.761 363.007 101.17 361.702 101.17C360.396 101.17 359.338 102.761 359.338 104.724C359.338 106.687 360.396 108.278 361.702 108.278C363.007 108.278 364.065 106.687 364.065 104.724Z" fill="#003566"/>
<path d="M360.103 131.232C360.103 131.232 368.548 140.435 377.07 134.49" stroke="#003566" stroke-width="2" stroke-linecap="round" stroke-linejoin="round"/>
<path d="M343.324 98.1781C354.278 97.3103 364.94 97.5036 376.124 75.8811C376.679 74.808 379.353 75.5204 379.352 76.7286C379.346 99.232 395.036 114.457 410.549 114.986C411.031 115.002 411.445 114.657 411.526 114.181C413.135 104.776 414.682 84.911 408.9 74.4C401.455 60.8667 385.324 52.4889 366.091 59.5778C351.083 65.1096 339.97 86.8292 342.312 97.4627C342.414 97.9246 342.853 98.2155 343.324 98.1781Z" fill="#003566"/>
<path d="M343.602 110C344.649 109.01 346.995 103.913 348 91.4423C346.534 90.2052 343.351 88.6216 342.346 92.1846C341.341 95.7477 342.765 105.546 343.602 110Z" fill="#003566"/>
<path d="M404.484 125.034C402.6 123.317 397.723 116.949 403.423 107.873L411.004 111.14L404.484 125.034Z" fill="#003566"/>
<path d="M413.247 99C409.633 99 379.163 82.2553 343.221 86.5965C340.742 83.4959 359.333 48.5417 389.698 57.4485C420.064 66.3554 415.726 99 413.247 99Z" fill="#FFC300"/>
<path d="M376.171 72C373.849 72 365.077 72.5509 363.289 83.8519C363.033 85.4657 364.31 86.8658 365.939 86.9919C372.666 87.5124 375.407 88.1184 382.571 89.4484C384.221 89.7547 385.821 88.6352 385.936 86.9615C386.811 74.2259 378.505 72 376.171 72Z" stroke="#003566" stroke-width="2"/>
<path d="M303.934 125.518C307.448 125.017 310.203 123.152 311.102 123.069L311.862 136L320.875 126.506L324 108.993L319.674 100.727C319.538 99.2238 315.785 99.6999 311.862 99.6331C306.958 99.5496 297.968 103.391 296.333 104.977C294.698 106.564 297.069 107.148 298.54 107.482C299.716 107.749 304.806 106.758 307.203 106.23C303.607 107.677 296.202 110.738 295.352 111.406C294.29 112.241 294.453 113.494 297.069 114.162C299.684 114.83 306.386 112.158 307.203 112.074C308.021 111.991 294.78 117.669 293.554 118.838C292.328 120.007 293.799 120.341 297.069 120.424C300.338 120.508 306.468 117.752 307.203 117.669C307.939 117.585 299.602 122.762 298.54 124.098C297.477 125.434 300.419 126.019 303.934 125.518Z" fill="white"/>
<path d="M310.768 98.9665C322.959 96.1715 324.991 106.653 323.636 117.833C322.552 126.777 315.509 133.671 312.123 136" stroke="#003566" stroke-width="2" stroke-linecap="round" stroke-linejoin="round"/>
<path d="M311 98.9999C299 102.5 295 106.166 296.365 107.465C298.414 109.413 309.676 105.43 311.553 104.766" stroke="#003566" stroke-width="2" stroke-linecap="round" stroke-linejoin="round"/>
<path d="M309.016 105.779C297.849 108.75 293.058 112.024 294.904 113.95C296.75 115.876 306.47 112.282 308.184 111.601" stroke="#003566" stroke-width="2" stroke-linecap="round" stroke-linejoin="round"/>
<path d="M311.055 110.647C298.502 114.686 291.451 119.552 293.5 121.5C295.549 123.448 306.633 117.915 308.51 117.252" stroke="#003566" stroke-width="2" stroke-linecap="round" stroke-linejoin="round"/>
<path d="M310.964 116.453C302.915 119.397 296.451 123.552 298.5 125.5C299.978 126.906 310.123 123.164 311.999 122.5" stroke="#003566" stroke-width="2" stroke-linecap="round" stroke-linejoin="round"/>
<path d="M311.871 122.768V135.999" stroke="#003566" stroke-width="2" stroke-linecap="round" stroke-linejoin="round"/>
<path d="M312 226.908C315.336 227.742 313.251 220.966 314.919 219.506C316.587 218.046 321.807 225.982 325.193 226.908C331.75 228.701 342.305 237.66 339.551 248.33C337.348 256.867 322.636 249.586 313.927 248.614" stroke="#003566" stroke-width="2" stroke-linecap="round" stroke-linejoin="round"/>
<path d="M313 237.995C306.239 236.13 287.461 232.618 288.71 228.298C289.65 225.046 304.443 230.679 312.112 232.537" stroke="#003566" stroke-width="2" stroke-linecap="round" stroke-linejoin="round"/>
<path d="M312 232.649C301.673 229.548 288.619 225.665 289.008 221.795C289.32 218.699 305.185 225.166 312 226.898" stroke="#003566" stroke-width="2" stroke-linecap="round" stroke-linejoin="round"/>
<path d="M317 249C300.998 246.615 295.343 242.921 297.749 241.907C300.998 240.538 308.298 242.495 314.86 243.388" stroke="#003566" stroke-width="2" stroke-linecap="round" stroke-linejoin="round"/>
<path d="M313 243C302.024 241.136 291.783 239.51 293.179 235.408C294.03 232.904 306.548 237.239 311.413 237.582" stroke="#003566" stroke-width="2" stroke-linecap="round" stroke-linejoin="round"/>
<path d="M472.257 130C483.303 130 492.257 121.046 492.257 110C492.257 98.9543 483.303 90 472.257 90C461.211 90 452.257 98.9543 452.257 110C452.257 114.393 453.673 118.454 456.073 121.754L448.359 128.234C447.644 128.835 448.069 130 449.002 130H471.257V129.975C471.588 129.992 471.921 130 472.257 130Z" fill="#B0BEC5"/>
<path d="M470.257 127C481.303 127 490.257 118.046 490.257 107C490.257 95.9543 481.303 87 470.257 87C459.211 87 450.257 95.9543 450.257 107C450.257 111.393 451.673 115.454 454.073 118.754L446.359 125.234C445.644 125.835 446.069 127 447.002 127H469.257V126.975C469.588 126.992 469.921 127 470.257 127Z" fill="white" stroke="#B0BEC5" stroke-width="2"/>
<path fill-rule="evenodd" clip-rule="evenodd" d="M470.257 97C464.737 97 460.257 101.48 460.257 107C460.257 112.52 464.737 117 470.257 117C475.777 117 480.257 112.52 480.257 107C480.257 101.48 475.777 97 470.257 97V97ZM469.256 114.93C465.306 114.44 462.256 111.08 462.256 107C462.256 106.38 462.336 105.79 462.466 105.21L467.256 110V111C467.256 112.1 468.156 113 469.256 113V114.93V114.93ZM476.157 112.39C475.897 111.58 475.157 111 474.257 111H473.257V108C473.257 107.45 472.807 107 472.257 107H466.257V105H468.257C468.807 105 469.257 104.55 469.257 104V102H471.257C472.357 102 473.257 101.1 473.257 100V99.5903C476.187 100.78 478.257 103.65 478.257 107C478.257 109.08 477.457 110.97 476.157 112.39V112.39Z" fill="#7D50FF"/>
<circle cx="335" cy="32" r="20" fill="#B0BEC5"/>
<circle cx="333" cy="29" r="19" fill="white" stroke="#B0BEC5" stroke-width="2"/>
<path fill-rule="evenodd" clip-rule="evenodd" d="M323 29C323 23.48 327.48 19 333 19C338.52 19 343 23.48 343 29C343 34.52 338.52 39 333 39C327.48 39 323 34.52 323 29ZM334.41 35.67V35.09C336.15 34.76 337.52 33.76 337.54 31.93C337.54 29.41 335.38 28.54 333.36 28.02C331.34 27.5 330.69 26.95 330.69 26.11C330.69 25.15 331.59 24.47 333.09 24.47C334.35 24.47 334.98 24.96 335.21 25.72C335.31 26.08 335.61 26.34 335.98 26.34H336.24C336.83 26.34 337.25 25.76 337.05 25.21C336.67 24.15 335.8 23.29 334.42 22.95V22.33C334.42 21.6 333.82 21 333.09 21H333.08C332.35 21 331.75 21.6 331.75 22.33V22.93C330.03 23.3 328.64 24.42 328.64 26.14C328.64 28.19 330.34 29.21 332.82 29.81C335.05 30.34 335.49 31.12 335.49 31.95C335.49 32.56 335.05 33.54 333.09 33.54C331.63 33.54 330.87 33.02 330.58 32.27C330.44 31.92 330.14 31.67 329.77 31.67H329.53C328.93 31.67 328.5 32.28 328.73 32.83C329.23 34.06 330.41 34.79 331.74 35.07V35.67C331.74 36.4 332.34 37 333.07 37H333.08C333.81 37 334.41 36.4 334.41 35.67Z" fill="#00B6A4"/>
<path d="M111.629 100.821C92.3066 95.4106 91.4743 80.7288 91.4385 61.1655C91.4354 59.4866 92.2267 57.8893 93.6216 56.9391C101.383 51.6524 108.76 49.0761 111.653 48.1929C112.496 47.9354 113.381 47.9354 114.224 48.1929C117.117 49.0761 124.494 51.6524 132.255 56.9391C133.65 57.8893 134.442 59.4866 134.438 61.1655C134.403 80.7288 133.571 95.4106 114.248 100.821C113.399 101.059 112.478 101.059 111.629 100.821Z" fill="#8D9DB5"/>
<path d="M87.4385 56.1673C87.4563 65.9115 87.6621 74.6659 90.3686 81.6614C93.1203 88.7738 98.4225 94.0018 108.359 96.7844C109.385 97.0716 110.493 97.0716 111.518 96.7844C121.455 94.0018 126.757 88.7738 129.508 81.6614C132.215 74.6659 132.421 65.9115 132.438 56.1673C132.442 54.1772 131.503 52.2606 129.818 51.1126C121.946 45.7499 114.466 43.1371 111.516 42.2365C110.482 41.9209 109.395 41.9209 108.361 42.2365L108.653 43.1929L108.361 42.2365C105.411 43.1371 97.9313 45.7499 90.0587 51.1126C88.3735 52.2606 87.4348 54.1772 87.4385 56.1673Z" fill="white" stroke="#8D9DB5" stroke-width="2"/>
<path d="M110.438 49.5988C110.438 48.7018 109.75 47.8954 108.892 48.1566C106.538 48.8731 100.533 50.9633 94.2155 55.2526C93.0801 56.0235 92.436 57.3194 92.4385 58.6815C92.4441 61.7591 92.4742 64.6879 92.6336 67.4417C92.7511 69.4727 94.4679 70.9999 96.5022 70.9999H110.438V90.3907C110.438 90.6976 110.709 90.9377 111.005 90.8552C120.519 88.1994 124.526 82.791 126.213 75.4181C126.745 73.0903 124.854 70.9999 122.466 70.9999H110.438V49.5988Z" fill="#FF9C00"/>
<path fill-rule="evenodd" clip-rule="evenodd" d="M402.908 332.822H418.908C410.071 332.822 402.908 325.659 402.908 316.822V280.152C402.908 263.767 391.491 250.485 377.408 250.485C363.324 250.485 351.908 263.767 351.908 280.152V316.822C351.908 325.659 359.071 332.822 367.908 332.822H402.908V332.822Z" fill="#8D9DB5"/>
<path fill-rule="evenodd" clip-rule="evenodd" d="M362.562 250.485H378.562C369.725 250.485 362.562 257.649 362.562 266.485V303.155C362.562 319.54 351.145 332.822 337.062 332.822C322.979 332.822 311.562 319.54 311.562 303.155V266.485C311.562 257.649 318.725 250.485 327.562 250.485H362.562V250.485Z" fill="#B0BEC5"/>
</svg>
